<?xml version="1.0" standalone="no"?>
<!DOCTYPE svg PUBLIC "-//W3C//DTD SVG 20010904//EN"
 "http://www.w3.org/TR/2001/REC-SVG-20010904/DTD/svg10.dtd">
<svg version="1.0" xmlns="http://www.w3.org/2000/svg"
 width="512.000000pt" height="512.000000pt" viewBox="0 0 512.000000 512.000000"
 preserveAspectRatio="xMidYMid meet">
<metadata>
Created by potrace 1.14, written by Peter Selinger 2001-2017
</metadata>
<g transform="translate(0.000000,512.000000) scale(0.100000,-0.100000)"
fill="#000000" stroke="none">
<path d="M1003 2563 l-191 -588 96 -3 c52 -1 99 1 103 5 6 6 114 332 183 551
7 22 6 22 -73 22 -47 0 -81 4 -81 10 0 6 38 10 95 10 71 0 93 -3 90 -12 -51
-153 -185 -574 -185 -580 0 -5 28 -8 62 -6 l62 3 188 575 c103 316 188 581
188 588 0 7 -13 12 -32 12 l-33 0 -89 -278 c-50 -152 -92 -283 -94 -289 -2 -7
3 -13 12 -13 9 0 16 -4 16 -10 0 -5 -14 -10 -31 -10 -22 0 -30 4 -26 13 12 30
187 575 187 581 0 3 -58 6 -128 6 l-128 0 -191 -587z"/>
<path d="M1405 2603 c-98 -302 -184 -567 -191 -591 l-13 -43 131 3 131 3 93
288 c51 158 96 292 99 297 8 13 55 13 55 0 0 -5 -9 -10 -20 -10 -17 0 -32 -40
-113 -287 l-93 -288 29 -3 c16 -2 33 0 37 5 9 9 380 1145 380 1163 0 7 -21 10
-62 8 l-61 -3 -97 -295 -96 -295 -92 -3 c-59 -2 -92 1 -92 8 0 6 33 10 84 10
l85 0 90 279 c50 154 91 284 91 290 0 7 -34 11 -98 11 l-98 0 -179 -547z"/>
<path d="M1783 2563 l-191 -588 171 -3 c94 -1 174 1 178 5 8 9 379 1146 379
1162 0 7 -57 11 -173 11 l-173 0 -191 -587z m317 -3 c0 -6 -53 -10 -140 -10
-87 0 -140 4 -140 10 0 6 53 10 140 10 87 0 140 -4 140 -10z"/>
<path d="M2173 2563 l-192 -588 171 -3 c95 -1 175 1 179 5 8 9 379 1147 379
1163 0 6 -62 10 -173 10 l-173 0 -191 -587z m317 -3 c0 -6 -53 -10 -140 -10
-87 0 -140 4 -140 10 0 6 53 10 140 10 87 0 140 -4 140 -10z"/>
<path d="M2567 2575 c-103 -316 -190 -581 -193 -590 -6 -14 14 -15 172 -13
l178 3 183 560 c100 308 185 572 188 588 l7 27 -174 0 -174 0 -187 -575z m313
-15 c0 -6 -53 -10 -140 -10 -87 0 -140 4 -140 10 0 6 53 10 140 10 87 0 140
-4 140 -10z"/>
<path d="M3121 3138 c0 -7 85 -272 188 -588 l187 -575 178 -3 c141 -2 177 0
173 10 -4 12 -347 1067 -368 1136 l-11 32 -99 0 c-61 0 -99 -4 -99 -10 0 -6
34 -115 76 -243 41 -127 82 -253 90 -279 l16 -48 84 0 c49 0 84 -4 84 -10 0
-6 -51 -10 -134 -10 -79 0 -137 4 -141 10 -3 6 1 10 9 10 9 0 16 3 16 6 0 4
-41 134 -92 290 l-92 284 -33 0 c-20 0 -33 -5 -32 -12z"/>
<path d="M3623 3138 c5 -15 302 -931 347 -1070 l31 -98 174 0 c96 0 175 3 175
8 0 4 -85 268 -188 587 l-189 580 -102 3 -103 3 8 -23 c4 -13 46 -142 93 -288
l87 -265 79 -3 c44 -2 84 -7 89 -12 7 -7 -42 -10 -132 -10 -88 0 -142 4 -142
10 0 6 5 10 10 10 6 0 10 6 10 13 0 8 -41 138 -90 290 l-91 277 -35 0 c-25 0
-35 -4 -31 -12z"/>
</g>
</svg>
